<svg width="155" height="155" viewBox="0 0 155 155" fill="none" xmlns="http://www.w3.org/2000/svg">
<circle cx="77.5" cy="77.5" r="77.5" fill="#27AA35"/>
<circle cx="77" cy="77" r="71" fill="#36C84B"/>
<path d="M114.242 38.8833C114.797 38.8817 115.247 39.3317 115.245 39.8862L115.092 93.5891C115.09 94.4786 114.014 94.9223 113.385 94.2933L59.8351 40.7432C59.2061 40.1142 59.6499 39.0387 60.5394 39.0361L114.242 38.8833Z" fill="#0B650D"/>
<path d="M39.8862 115.245C39.3317 115.247 38.8818 114.797 38.8833 114.242L39.0361 60.5394C39.0387 59.6499 40.1142 59.2061 40.7432 59.8351L94.2934 113.385C94.9223 114.014 94.4786 115.09 93.5891 115.092L39.8862 115.245Z" fill="#0B650D"/>
</svg>
